<svg xmlns="http://www.w3.org/2000/svg" version="1.1" viewBox="0.00 0.00 271.00 271.00" width="271.00" height="271.00">
<g stroke-width="2.00" fill="none" stroke-linecap="butt">
<path stroke="#808080" d="&#10;  M 43.87 92.86&#10;  Q 42.48 94.00 42.63 92.21&#10;  Q 43.46 82.35 44.84 72.02&#10;  Q 45.17 69.59 43.96 67.71&#10;  A 1.47 1.47 0.0 0 0 41.32 68.08&#10;  C 40.34 71.31 39.21 74.63 38.75 78.00&#10;  C 38.32 81.17 37.33 84.22 37.12 87.42&#10;  C 36.82 92.15 35.35 96.27 34.87 100.99&#10;  Q 32.57 123.79 32.51 144.76&#10;  Q 32.50 148.07 33.47 151.75&#10;  Q 34.19 154.46 36.94 154.96&#10;  L 37.43 155.05&#10;  Q 39.36 155.40 39.26 153.44&#10;  Q 38.82 145.37 39.43 141.77&#10;  Q 40.11 137.73 40.96 133.73&#10;  A 0.54 0.54 0.0 0 1 41.86 133.45&#10;  Q 46.33 137.66 52.26 139.55&#10;  C 58.94 141.69 65.13 138.25 69.30 132.86&#10;  Q 72.89 128.23 76.35 123.69&#10;  C 76.85 123.03 77.02 122.25 77.36 121.51&#10;  A 0.82 0.82 0.0 0 1 78.76 121.36&#10;  C 82.70 126.66 84.02 133.89 85.43 141.05&#10;  C 87.94 153.81 85.56 166.24 82.51 178.58&#10;  Q 80.00 188.76 73.34 198.48&#10;  Q 72.43 199.80 72.48 201.40&#10;  A 0.32 0.32 0.0 0 0 72.95 201.67&#10;  C 80.22 197.74 85.10 193.19 87.83 185.20&#10;  Q 91.21 175.33 92.72 168.90&#10;  Q 96.00 154.91 92.13 137.17&#10;  Q 89.72 126.12 83.87 114.61&#10;  A 3.03 3.00 -46.6 0 1 83.81 112.03&#10;  Q 87.03 104.76 91.56 97.31&#10;  C 94.51 92.48 96.03 87.16 98.80 82.44&#10;  Q 101.68 77.54 102.19 70.26&#10;  Q 102.31 68.53 100.78 67.76&#10;  C 98.16 66.43 95.60 65.54 92.58 66.44&#10;  C 87.88 67.82 83.61 68.48 78.78 70.68&#10;  C 75.37 72.23 72.41 74.43 69.10 76.14&#10;  Q 56.21 82.78 45.31 91.22&#10;  C 44.78 91.63 44.34 92.47 43.87 92.86"/>
<path stroke="#808080" d="&#10;  M 206.11 129.99&#10;  A 2.08 2.08 0.0 0 1 207.42 132.97&#10;  Q 199.07 148.97 187.29 161.13&#10;  Q 183.89 164.63 179.87 167.50&#10;  C 177.17 169.42 176.27 173.61 172.10 171.70&#10;  Q 170.34 170.89 171.47 172.46&#10;  C 173.25 174.90 176.26 176.85 179.24 175.39&#10;  Q 184.92 172.60 189.63 169.79&#10;  A 3.30 3.26 31.5 0 1 191.56 169.34&#10;  L 205.50 170.37&#10;  Q 206.70 170.46 206.51 171.65&#10;  Q 205.49 178.11 205.37 185.38&#10;  Q 205.36 185.97 204.84 186.25&#10;  L 203.46 186.99&#10;  A 0.88 0.87 -20.2 0 0 203.02 187.93&#10;  Q 203.81 191.58 205.92 194.59&#10;  A 2.21 2.20 -37.3 0 0 209.13 195.02&#10;  C 210.71 193.71 210.83 192.27 211.19 190.34&#10;  Q 212.83 181.67 213.09 173.23&#10;  A 0.87 0.87 0.0 0 1 213.92 172.39&#10;  Q 215.30 172.33 216.59 172.73&#10;  Q 225.09 175.36 234.39 178.36&#10;  C 235.80 178.82 236.56 180.02 236.00 181.49&#10;  C 235.59 182.55 234.61 182.73 233.70 183.15&#10;  Q 231.88 184.00 233.82 184.52&#10;  C 235.85 185.06 238.19 186.21 240.26 185.44&#10;  C 242.89 184.47 244.93 182.33 244.49 179.47&#10;  Q 244.40 178.90 243.96 178.54&#10;  Q 242.06 176.98 239.71 175.92&#10;  Q 226.61 170.04 215.35 167.58&#10;  Q 213.03 167.07 213.27 164.77&#10;  Q 214.44 153.53 214.80 142.78&#10;  Q 215.02 136.41 216.25 130.21&#10;  Q 218.65 118.12 220.67 106.44&#10;  A 2.69 2.66 87.3 0 1 222.59 104.31&#10;  L 226.11 103.32&#10;  A 1.28 1.28 0.0 0 0 226.52 101.05&#10;  L 223.48 98.85&#10;  A 2.80 2.80 0.0 0 1 222.45 95.77&#10;  Q 223.51 92.32 223.98 88.20&#10;  C 224.58 82.98 224.77 78.57 220.49 74.87&#10;  Q 217.33 72.13 212.82 73.25&#10;  Q 212.26 73.39 212.27 73.96&#10;  Q 212.29 75.36 213.06 76.39&#10;  A 0.93 0.92 70.8 0 0 213.79 76.75&#10;  L 216.70 76.74&#10;  A 1.78 1.77 -6.4 0 1 218.45 78.13&#10;  Q 219.21 81.62 218.85 84.65&#10;  Q 218.10 90.86 217.20 96.53&#10;  Q 217.00 97.82 216.18 98.84&#10;  Q 215.84 99.28 215.28 99.34&#10;  C 212.58 99.62 210.23 100.75 207.54 101.36&#10;  C 199.89 103.08 191.87 103.77 184.10 104.53&#10;  C 178.56 105.06 172.96 106.25 167.26 106.27&#10;  C 166.18 106.28 165.32 105.88 164.36 105.49&#10;  Q 163.48 105.13 163.93 105.97&#10;  Q 166.20 110.19 170.08 110.26&#10;  Q 176.33 110.38 186.70 109.19&#10;  Q 190.71 108.73 194.46 108.08&#10;  Q 199.99 107.13 207.01 107.07&#10;  Q 207.71 107.07 207.69 107.77&#10;  C 207.55 112.26 203.96 115.88 201.92 119.67&#10;  Q 197.27 128.33 190.66 135.67&#10;  C 188.53 138.04 184.10 140.28 181.40 144.13&#10;  Q 181.08 144.57 181.29 145.07&#10;  L 182.89 148.97&#10;  A 1.44 1.44 0.0 0 0 184.79 149.75&#10;  Q 187.03 148.80 188.77 147.06&#10;  Q 195.38 140.48 201.21 131.80&#10;  Q 202.86 129.35 205.76 129.91&#10;  Q 205.94 129.94 206.11 129.99"/>
<path stroke="#808080" d="&#10;  M 53.17 91.57&#10;  C 58.82 91.97 64.99 93.40 69.02 97.19&#10;  Q 72.56 100.52 76.46 104.59&#10;  A 1.20 1.20 0.0 0 0 78.24 104.54&#10;  Q 82.93 99.06 85.58 92.23&#10;  Q 87.81 86.49 91.06 80.62&#10;  Q 93.27 76.62 93.55 72.03&#10;  A 1.55 1.54 -8.1 0 0 91.48 70.48&#10;  Q 80.33 74.49 69.87 79.51&#10;  Q 66.32 81.21 62.06 83.13&#10;  C 58.77 84.62 54.00 86.81 52.16 89.50&#10;  A 1.33 1.33 0.0 0 0 53.17 91.57"/>
<path stroke="#808080" d="&#10;  M 67.11 103.09&#10;  C 63.63 98.78 57.76 96.50 52.43 96.02&#10;  Q 49.03 95.71 45.01 97.52&#10;  Q 40.86 99.39 40.97 103.65&#10;  Q 41.18 112.03 40.76 122.39&#10;  A 2.22 2.19 28.4 0 0 41.18 123.77&#10;  C 44.02 127.68 42.90 131.90 48.69 133.61&#10;  Q 56.13 135.80 60.85 130.66&#10;  Q 68.52 122.30 73.86 113.07&#10;  A 1.53 1.52 -49.2 0 0 73.74 111.36&#10;  Q 70.49 107.28 67.11 103.09"/>
<path stroke="#808080" d="&#10;  M 204.92 126.69&#10;  A 1.23 1.23 0.0 0 0 206.16 128.54&#10;  L 210.15 127.93&#10;  A 1.23 1.23 0.0 0 0 211.17 126.96&#10;  L 213.01 117.87&#10;  A 1.23 1.23 0.0 0 0 210.75 117.00&#10;  L 204.92 126.69"/>
<path stroke="#808080" d="&#10;  M 196.28 165.04&#10;  L 205.50 165.48&#10;  A 1.63 1.62 -82.1 0 0 207.15 164.22&#10;  Q 208.93 156.66 209.12 148.11&#10;  A 0.41 0.40 -14.4 0 0 208.51 147.75&#10;  Q 208.32 147.86 208.13 147.99&#10;  Q 207.88 148.16 207.72 148.38&#10;  Q 202.40 155.93 196.79 160.88&#10;  Q 195.48 162.04 195.25 163.82&#10;  A 1.08 1.08 0.0 0 0 196.28 165.04"/>
</g>
<path fill="#000000" d="&#10;  M 129.59 0.00&#10;  L 141.56 0.00&#10;  Q 193.19 3.12 229.07 37.43&#10;  Q 267.62 74.30 271.00 129.59&#10;  L 271.00 141.55&#10;  Q 268.30 187.97 239.93 221.93&#10;  Q 202.22 267.06 141.42 271.00&#10;  L 129.42 271.00&#10;  Q 74.02 267.52 37.18 228.82&#10;  Q 3.05 192.94 0.00 141.41&#10;  L 0.00 129.43&#10;  Q 4.39 65.19 53.82 27.32&#10;  Q 86.34 2.41 129.59 0.00&#10;  Z&#10;  M 43.87 92.86&#10;  Q 42.48 94.00 42.63 92.21&#10;  Q 43.46 82.35 44.84 72.02&#10;  Q 45.17 69.59 43.96 67.71&#10;  A 1.47 1.47 0.0 0 0 41.32 68.08&#10;  C 40.34 71.31 39.21 74.63 38.75 78.00&#10;  C 38.32 81.17 37.33 84.22 37.12 87.42&#10;  C 36.82 92.15 35.35 96.27 34.87 100.99&#10;  Q 32.57 123.79 32.51 144.76&#10;  Q 32.50 148.07 33.47 151.75&#10;  Q 34.19 154.46 36.94 154.96&#10;  L 37.43 155.05&#10;  Q 39.36 155.40 39.26 153.44&#10;  Q 38.82 145.37 39.43 141.77&#10;  Q 40.11 137.73 40.96 133.73&#10;  A 0.54 0.54 0.0 0 1 41.86 133.45&#10;  Q 46.33 137.66 52.26 139.55&#10;  C 58.94 141.69 65.13 138.25 69.30 132.86&#10;  Q 72.89 128.23 76.35 123.69&#10;  C 76.85 123.03 77.02 122.25 77.36 121.51&#10;  A 0.82 0.82 0.0 0 1 78.76 121.36&#10;  C 82.70 126.66 84.02 133.89 85.43 141.05&#10;  C 87.94 153.81 85.56 166.24 82.51 178.58&#10;  Q 80.00 188.76 73.34 198.48&#10;  Q 72.43 199.80 72.48 201.40&#10;  A 0.32 0.32 0.0 0 0 72.95 201.67&#10;  C 80.22 197.74 85.10 193.19 87.83 185.20&#10;  Q 91.21 175.33 92.72 168.90&#10;  Q 96.00 154.91 92.13 137.17&#10;  Q 89.72 126.12 83.87 114.61&#10;  A 3.03 3.00 -46.6 0 1 83.81 112.03&#10;  Q 87.03 104.76 91.56 97.31&#10;  C 94.51 92.48 96.03 87.16 98.80 82.44&#10;  Q 101.68 77.54 102.19 70.26&#10;  Q 102.31 68.53 100.78 67.76&#10;  C 98.16 66.43 95.60 65.54 92.58 66.44&#10;  C 87.88 67.82 83.61 68.48 78.78 70.68&#10;  C 75.37 72.23 72.41 74.43 69.10 76.14&#10;  Q 56.21 82.78 45.31 91.22&#10;  C 44.78 91.63 44.34 92.47 43.87 92.86&#10;  Z&#10;  M 206.11 129.99&#10;  A 2.08 2.08 0.0 0 1 207.42 132.97&#10;  Q 199.07 148.97 187.29 161.13&#10;  Q 183.89 164.63 179.87 167.50&#10;  C 177.17 169.42 176.27 173.61 172.10 171.70&#10;  Q 170.34 170.89 171.47 172.46&#10;  C 173.25 174.90 176.26 176.85 179.24 175.39&#10;  Q 184.92 172.60 189.63 169.79&#10;  A 3.30 3.26 31.5 0 1 191.56 169.34&#10;  L 205.50 170.37&#10;  Q 206.70 170.46 206.51 171.65&#10;  Q 205.49 178.11 205.37 185.38&#10;  Q 205.36 185.97 204.84 186.25&#10;  L 203.46 186.99&#10;  A 0.88 0.87 -20.2 0 0 203.02 187.93&#10;  Q 203.81 191.58 205.92 194.59&#10;  A 2.21 2.20 -37.3 0 0 209.13 195.02&#10;  C 210.71 193.71 210.83 192.27 211.19 190.34&#10;  Q 212.83 181.67 213.09 173.23&#10;  A 0.87 0.87 0.0 0 1 213.92 172.39&#10;  Q 215.30 172.33 216.59 172.73&#10;  Q 225.09 175.36 234.39 178.36&#10;  C 235.80 178.82 236.56 180.02 236.00 181.49&#10;  C 235.59 182.55 234.61 182.73 233.70 183.15&#10;  Q 231.88 184.00 233.82 184.52&#10;  C 235.85 185.06 238.19 186.21 240.26 185.44&#10;  C 242.89 184.47 244.93 182.33 244.49 179.47&#10;  Q 244.40 178.90 243.96 178.54&#10;  Q 242.06 176.98 239.71 175.92&#10;  Q 226.61 170.04 215.35 167.58&#10;  Q 213.03 167.07 213.27 164.77&#10;  Q 214.44 153.53 214.80 142.78&#10;  Q 215.02 136.41 216.25 130.21&#10;  Q 218.65 118.12 220.67 106.44&#10;  A 2.69 2.66 87.3 0 1 222.59 104.31&#10;  L 226.11 103.32&#10;  A 1.28 1.28 0.0 0 0 226.52 101.05&#10;  L 223.48 98.85&#10;  A 2.80 2.80 0.0 0 1 222.45 95.77&#10;  Q 223.51 92.32 223.98 88.20&#10;  C 224.58 82.98 224.77 78.57 220.49 74.87&#10;  Q 217.33 72.13 212.82 73.25&#10;  Q 212.26 73.39 212.27 73.96&#10;  Q 212.29 75.36 213.06 76.39&#10;  A 0.93 0.92 70.8 0 0 213.79 76.75&#10;  L 216.70 76.74&#10;  A 1.78 1.77 -6.4 0 1 218.45 78.13&#10;  Q 219.21 81.62 218.85 84.65&#10;  Q 218.10 90.86 217.20 96.53&#10;  Q 217.00 97.82 216.18 98.84&#10;  Q 215.84 99.28 215.28 99.34&#10;  C 212.58 99.62 210.23 100.75 207.54 101.36&#10;  C 199.89 103.08 191.87 103.77 184.10 104.53&#10;  C 178.56 105.06 172.96 106.25 167.26 106.27&#10;  C 166.18 106.28 165.32 105.88 164.36 105.49&#10;  Q 163.48 105.13 163.93 105.97&#10;  Q 166.20 110.19 170.08 110.26&#10;  Q 176.33 110.38 186.70 109.19&#10;  Q 190.71 108.73 194.46 108.08&#10;  Q 199.99 107.13 207.01 107.07&#10;  Q 207.71 107.07 207.69 107.77&#10;  C 207.55 112.26 203.96 115.88 201.92 119.67&#10;  Q 197.27 128.33 190.66 135.67&#10;  C 188.53 138.04 184.10 140.28 181.40 144.13&#10;  Q 181.08 144.57 181.29 145.07&#10;  L 182.89 148.97&#10;  A 1.44 1.44 0.0 0 0 184.79 149.75&#10;  Q 187.03 148.80 188.77 147.06&#10;  Q 195.38 140.48 201.21 131.80&#10;  Q 202.86 129.35 205.76 129.91&#10;  Q 205.94 129.94 206.11 129.99&#10;  Z"/>
<path fill="#ffffff" d="&#10;  M 43.87 92.86&#10;  C 44.34 92.47 44.78 91.63 45.31 91.22&#10;  Q 56.21 82.78 69.10 76.14&#10;  C 72.41 74.43 75.37 72.23 78.78 70.68&#10;  C 83.61 68.48 87.88 67.82 92.58 66.44&#10;  C 95.60 65.54 98.16 66.43 100.78 67.76&#10;  Q 102.31 68.53 102.19 70.26&#10;  Q 101.68 77.54 98.80 82.44&#10;  C 96.03 87.16 94.51 92.48 91.56 97.31&#10;  Q 87.03 104.76 83.81 112.03&#10;  A 3.03 3.00 -46.6 0 0 83.87 114.61&#10;  Q 89.72 126.12 92.13 137.17&#10;  Q 96.00 154.91 92.72 168.90&#10;  Q 91.21 175.33 87.83 185.20&#10;  C 85.10 193.19 80.22 197.74 72.95 201.67&#10;  A 0.32 0.32 0.0 0 1 72.48 201.40&#10;  Q 72.43 199.80 73.34 198.48&#10;  Q 80.00 188.76 82.51 178.58&#10;  C 85.56 166.24 87.94 153.81 85.43 141.05&#10;  C 84.02 133.89 82.70 126.66 78.76 121.36&#10;  A 0.82 0.82 0.0 0 0 77.36 121.51&#10;  C 77.02 122.25 76.85 123.03 76.35 123.69&#10;  Q 72.89 128.23 69.30 132.86&#10;  C 65.13 138.25 58.94 141.69 52.26 139.55&#10;  Q 46.33 137.66 41.86 133.45&#10;  A 0.54 0.54 0.0 0 0 40.96 133.73&#10;  Q 40.11 137.73 39.43 141.77&#10;  Q 38.82 145.37 39.26 153.44&#10;  Q 39.36 155.40 37.43 155.05&#10;  L 36.94 154.96&#10;  Q 34.19 154.46 33.47 151.75&#10;  Q 32.50 148.07 32.51 144.76&#10;  Q 32.57 123.79 34.87 100.99&#10;  C 35.35 96.27 36.82 92.15 37.12 87.42&#10;  C 37.33 84.22 38.32 81.17 38.75 78.00&#10;  C 39.21 74.63 40.34 71.31 41.32 68.08&#10;  A 1.47 1.47 0.0 0 1 43.96 67.71&#10;  Q 45.17 69.59 44.84 72.02&#10;  Q 43.46 82.35 42.63 92.21&#10;  Q 42.48 94.00 43.87 92.86&#10;  Z&#10;  M 53.17 91.57&#10;  C 58.82 91.97 64.99 93.40 69.02 97.19&#10;  Q 72.56 100.52 76.46 104.59&#10;  A 1.20 1.20 0.0 0 0 78.24 104.54&#10;  Q 82.93 99.06 85.58 92.23&#10;  Q 87.81 86.49 91.06 80.62&#10;  Q 93.27 76.62 93.55 72.03&#10;  A 1.55 1.54 -8.1 0 0 91.48 70.48&#10;  Q 80.33 74.49 69.87 79.51&#10;  Q 66.32 81.21 62.06 83.13&#10;  C 58.77 84.62 54.00 86.81 52.16 89.50&#10;  A 1.33 1.33 0.0 0 0 53.17 91.57&#10;  Z&#10;  M 67.11 103.09&#10;  C 63.63 98.78 57.76 96.50 52.43 96.02&#10;  Q 49.03 95.71 45.01 97.52&#10;  Q 40.86 99.39 40.97 103.65&#10;  Q 41.18 112.03 40.76 122.39&#10;  A 2.22 2.19 28.4 0 0 41.18 123.77&#10;  C 44.02 127.68 42.90 131.90 48.69 133.61&#10;  Q 56.13 135.80 60.85 130.66&#10;  Q 68.52 122.30 73.86 113.07&#10;  A 1.53 1.52 -49.2 0 0 73.74 111.36&#10;  Q 70.49 107.28 67.11 103.09&#10;  Z"/>
<path fill="#000000" d="&#10;  M 69.02 97.19&#10;  C 64.99 93.40 58.82 91.97 53.17 91.57&#10;  A 1.33 1.33 0.0 0 1 52.16 89.50&#10;  C 54.00 86.81 58.77 84.62 62.06 83.13&#10;  Q 66.32 81.21 69.87 79.51&#10;  Q 80.33 74.49 91.48 70.48&#10;  A 1.55 1.54 -8.1 0 1 93.55 72.03&#10;  Q 93.27 76.62 91.06 80.62&#10;  Q 87.81 86.49 85.58 92.23&#10;  Q 82.93 99.06 78.24 104.54&#10;  A 1.20 1.20 0.0 0 1 76.46 104.59&#10;  Q 72.56 100.52 69.02 97.19&#10;  Z"/>
<path fill="#ffffff" d="&#10;  M 206.11 129.99&#10;  Q 205.94 129.94 205.76 129.91&#10;  Q 202.86 129.35 201.21 131.80&#10;  Q 195.38 140.48 188.77 147.06&#10;  Q 187.03 148.80 184.79 149.75&#10;  A 1.44 1.44 0.0 0 1 182.89 148.97&#10;  L 181.29 145.07&#10;  Q 181.08 144.57 181.40 144.13&#10;  C 184.10 140.28 188.53 138.04 190.66 135.67&#10;  Q 197.27 128.33 201.92 119.67&#10;  C 203.96 115.88 207.55 112.26 207.69 107.77&#10;  Q 207.71 107.07 207.01 107.07&#10;  Q 199.99 107.13 194.46 108.08&#10;  Q 190.71 108.73 186.70 109.19&#10;  Q 176.33 110.38 170.08 110.26&#10;  Q 166.20 110.19 163.93 105.97&#10;  Q 163.48 105.13 164.36 105.49&#10;  C 165.32 105.88 166.18 106.28 167.26 106.27&#10;  C 172.96 106.25 178.56 105.06 184.10 104.53&#10;  C 191.87 103.77 199.89 103.08 207.54 101.36&#10;  C 210.23 100.75 212.58 99.62 215.28 99.34&#10;  Q 215.84 99.28 216.18 98.84&#10;  Q 217.00 97.82 217.20 96.53&#10;  Q 218.10 90.86 218.85 84.65&#10;  Q 219.21 81.62 218.45 78.13&#10;  A 1.78 1.77 -6.4 0 0 216.70 76.74&#10;  L 213.79 76.75&#10;  A 0.93 0.92 70.8 0 1 213.06 76.39&#10;  Q 212.29 75.36 212.27 73.96&#10;  Q 212.26 73.39 212.82 73.25&#10;  Q 217.33 72.13 220.49 74.87&#10;  C 224.77 78.57 224.58 82.98 223.98 88.20&#10;  Q 223.51 92.32 222.45 95.77&#10;  A 2.80 2.80 0.0 0 0 223.48 98.85&#10;  L 226.52 101.05&#10;  A 1.28 1.28 0.0 0 1 226.11 103.32&#10;  L 222.59 104.31&#10;  A 2.69 2.66 87.3 0 0 220.67 106.44&#10;  Q 218.65 118.12 216.25 130.21&#10;  Q 215.02 136.41 214.80 142.78&#10;  Q 214.44 153.53 213.27 164.77&#10;  Q 213.03 167.07 215.35 167.58&#10;  Q 226.61 170.04 239.71 175.92&#10;  Q 242.06 176.98 243.96 178.54&#10;  Q 244.40 178.90 244.49 179.47&#10;  C 244.93 182.33 242.89 184.47 240.26 185.44&#10;  C 238.19 186.21 235.85 185.06 233.82 184.52&#10;  Q 231.88 184.00 233.70 183.15&#10;  C 234.61 182.73 235.59 182.55 236.00 181.49&#10;  C 236.56 180.02 235.80 178.82 234.39 178.36&#10;  Q 225.09 175.36 216.59 172.73&#10;  Q 215.30 172.33 213.92 172.39&#10;  A 0.87 0.87 0.0 0 0 213.09 173.23&#10;  Q 212.83 181.67 211.19 190.34&#10;  C 210.83 192.27 210.71 193.71 209.13 195.02&#10;  A 2.21 2.20 -37.3 0 1 205.92 194.59&#10;  Q 203.81 191.58 203.02 187.93&#10;  A 0.88 0.87 -20.2 0 1 203.46 186.99&#10;  L 204.84 186.25&#10;  Q 205.36 185.97 205.37 185.38&#10;  Q 205.49 178.11 206.51 171.65&#10;  Q 206.70 170.46 205.50 170.37&#10;  L 191.56 169.34&#10;  A 3.30 3.26 31.5 0 0 189.63 169.79&#10;  Q 184.92 172.60 179.24 175.39&#10;  C 176.26 176.85 173.25 174.90 171.47 172.46&#10;  Q 170.34 170.89 172.10 171.70&#10;  C 176.27 173.61 177.17 169.42 179.87 167.50&#10;  Q 183.89 164.63 187.29 161.13&#10;  Q 199.07 148.97 207.42 132.97&#10;  A 2.08 2.08 0.0 0 0 206.11 129.99&#10;  Z&#10;  M 204.92 126.69&#10;  A 1.23 1.23 0.0 0 0 206.16 128.54&#10;  L 210.15 127.93&#10;  A 1.23 1.23 0.0 0 0 211.17 126.96&#10;  L 213.01 117.87&#10;  A 1.23 1.23 0.0 0 0 210.75 117.00&#10;  L 204.92 126.69&#10;  Z&#10;  M 196.28 165.04&#10;  L 205.50 165.48&#10;  A 1.63 1.62 -82.1 0 0 207.15 164.22&#10;  Q 208.93 156.66 209.12 148.11&#10;  A 0.41 0.40 -14.4 0 0 208.51 147.75&#10;  Q 208.32 147.86 208.13 147.99&#10;  Q 207.88 148.16 207.72 148.38&#10;  Q 202.40 155.93 196.79 160.88&#10;  Q 195.48 162.04 195.25 163.82&#10;  A 1.08 1.08 0.0 0 0 196.28 165.04&#10;  Z"/>
<path fill="#000000" d="&#10;  M 52.43 96.02&#10;  C 57.76 96.50 63.63 98.78 67.11 103.09&#10;  Q 70.49 107.28 73.74 111.36&#10;  A 1.53 1.52 -49.2 0 1 73.86 113.07&#10;  Q 68.52 122.30 60.85 130.66&#10;  Q 56.13 135.80 48.69 133.61&#10;  C 42.90 131.90 44.02 127.68 41.18 123.77&#10;  A 2.22 2.19 28.4 0 1 40.76 122.39&#10;  Q 41.18 112.03 40.97 103.65&#10;  Q 40.86 99.39 45.01 97.52&#10;  Q 49.03 95.71 52.43 96.02&#10;  Z"/>
<path fill="#000000" d="&#10;  M 204.92 126.69&#10;  L 210.75 117.00&#10;  A 1.23 1.23 0.0 0 1 213.01 117.87&#10;  L 211.17 126.96&#10;  A 1.23 1.23 0.0 0 1 210.15 127.93&#10;  L 206.16 128.54&#10;  A 1.23 1.23 0.0 0 1 204.92 126.69&#10;  Z"/>
<path fill="#000000" d="&#10;  M 205.50 165.48&#10;  L 196.28 165.04&#10;  A 1.08 1.08 0.0 0 1 195.25 163.82&#10;  Q 195.48 162.04 196.79 160.88&#10;  Q 202.40 155.93 207.72 148.38&#10;  Q 207.88 148.16 208.13 147.99&#10;  Q 208.32 147.86 208.51 147.75&#10;  A 0.41 0.40 -14.4 0 1 209.12 148.11&#10;  Q 208.93 156.66 207.15 164.22&#10;  A 1.63 1.62 -82.1 0 1 205.50 165.48&#10;  Z"/>
</svg>